<?xml version="1.0" encoding="UTF-8" standalone="no"?>
<!-- Created with Inkscape (http://www.inkscape.org/) -->

<svg
   width="95.51461mm"
   height="25.062866mm"
   viewBox="0 0 95.51461 25.062866"
   version="1.1"
   id="svg1"
   xmlns="http://www.w3.org/2000/svg"
   xmlns:svg="http://www.w3.org/2000/svg">
  <defs
     id="defs1" />
  <g
     id="layer2"
     transform="translate(-52.910578,-23.169179)">
    <g
       id="g7"
       transform="translate(-11.263474,-159.17066)"
       style="fill:#6600ff;fill-opacity:1">
      <path
         style="baseline-shift:baseline;display:inline;overflow:visible;opacity:1;vector-effect:none;fill:#6600ff;fill-opacity:1;stroke-linecap:round;stroke-linejoin:round;paint-order:stroke fill markers;enable-background:accumulate;stop-color:#000000;stop-opacity:1"
         d="m 194.53516,364.76172 c -15.42392,0 -27.95899,12.53507 -27.95899,27.95898 v 0.9668 c 0,15.42392 12.53507,27.95898 27.95899,27.95898 h 89.2539 c 15.42392,0 27.95899,-12.53506 27.95899,-27.95898 v -0.9668 c 0,-15.42391 -12.53507,-27.95898 -27.95899,-27.95898 z m 0,3.00195 h 89.2539 c 13.80115,0 24.95703,11.15589 24.95703,24.95703 v 0.9668 c 0,13.80115 -11.15588,24.95703 -24.95703,24.95703 h -89.2539 c -13.80115,0 -24.95703,-11.15588 -24.95704,-24.95703 v -0.9668 c 10e-6,-13.80114 11.15589,-24.95703 24.95704,-24.95703 z"
         id="path1"
         transform="matrix(0.44057874,0,0,0.44057874,-9.2158671,21.634231)" />
      <path
         style="baseline-shift:baseline;display:inline;overflow:visible;opacity:1;vector-effect:none;fill:#6600ff;fill-opacity:1;stroke-linecap:round;stroke-linejoin:round;paint-order:stroke fill markers;enable-background:accumulate;stop-color:#000000;stop-opacity:1"
         d="m 135.42383,182.33984 c -4.19881,0.01 -8.10542,2.15985 -10.36133,5.70118 a 0.66152613,0.66152613 0 0 0 0.002,0.71289 c 1.1335,1.76241 1.73838,3.81081 1.7461,5.90625 v 0.42382 c -3e-5,2.10883 -0.60553,4.1735 -1.7461,5.94727 a 0.66152613,0.66152613 0 0 0 0,0.71484 c 2.26625,3.52429 6.17129,5.65618 10.36133,5.65625 h 2.28125 c 6.7954,1.2e-4 12.31817,-5.52296 12.31836,-12.31836 v -0.42578 c -1.9e-4,-6.79539 -5.52296,-12.31847 -12.31836,-12.31836 h -2.28125 a 0.66152613,0.66152613 0 0 0 -0.002,0 z m 0.002,1.32422 h 2.28125 c 6.08044,-1e-4 10.99592,4.9137 10.99609,10.99414 v 0.42578 c -1.6e-4,6.08045 -4.91564,10.9962 -10.99609,10.9961 h -2.28125 c -3.6303,-7e-5 -6.99038,-1.8159 -9.03711,-4.79688 1.10416,-1.88542 1.74606,-4.00814 1.7461,-6.19922 v -0.42578 a 0.66152613,0.66152613 0 0 0 0,-0.002 c -0.008,-2.17673 -0.65062,-4.28338 -1.74805,-6.15625 2.03829,-2.99679 5.40046,-4.82766 9.03906,-4.83594 z"
         id="path2" />
      <path
         d="m 132.12639,200.4576 h -1.08996 v -10.71792 h 1.08996 z m 4.48927,-3.81486 h 4.64746 l -2.31616,-5.63144 z m -1.58952,3.81486 h -1.27162 l 4.6626,-10.71792 h 1.05968 l 4.6626,10.71792 h -1.27162 l -1.18079,-2.81573 h -5.48006 z"
         id="text2"
         style="font-size:15.1383px;line-height:0.78;font-family:Avenir;-inkscape-font-specification:'Avenir, Normal';text-align:center;letter-spacing:0.174855px;text-anchor:middle;fill:#6600ff;fill-opacity:1;stroke-width:0.192508;stroke-linecap:round;stroke-linejoin:round;paint-order:stroke markers fill"
         aria-label="IA" />
      <path
         d="m 159.68866,186.99152 h -0.67733 v -3.90596 h -0.0226 l -1.56916,3.90596 h -0.44027 l -1.56915,-3.90596 h -0.0226 v 3.90596 h -0.67734 v -4.65102 h 1.04987 l 1.45627,3.56729 1.45627,-3.56729 h 1.016 z m -5.94925,-4.04142 h -1.50142 v 4.04142 h -0.67734 v -4.04142 h -1.53529 v -0.6096 h 3.71405 z"
         id="text3"
         style="font-size:11.2889px;line-height:0.78;font-family:Avenir;-inkscape-font-specification:'Avenir, Normal';text-align:center;letter-spacing:0.174855px;text-anchor:middle;fill:#6600ff;fill-opacity:1;stroke-width:0.192508;stroke-linecap:round;stroke-linejoin:round;paint-order:stroke markers fill"
         aria-label="™" />
      <path
         d="m 76.021797,196.64274 h 4.647458 l -2.31616,-5.63144 z m -1.589522,3.81486 h -1.271617 l 4.662596,-10.71792 h 1.059681 l 4.662597,10.71792 h -1.271617 l -1.180788,-2.81573 h -5.480064 z m 14.13238,-5.40438 q -0.227074,-0.43901 -0.605532,-0.69636 -0.378457,-0.25735 -0.923436,-0.25735 -0.257351,0 -0.529841,0.0605 -0.257351,0.0606 -0.469287,0.1968 -0.211936,0.12111 -0.348181,0.31791 -0.121106,0.19679 -0.121106,0.48442 0,0.49956 0.348181,0.72664 0.348181,0.22707 1.044542,0.3936 l 1.014266,0.24221 q 0.741777,0.16652 1.226203,0.68122 0.499564,0.49957 0.499564,1.25648 0,0.57526 -0.242213,0.99913 -0.227075,0.40873 -0.62067,0.68122 -0.378458,0.25735 -0.878022,0.37846 -0.499564,0.12111 -1.014266,0.12111 -0.817468,0 -1.528968,-0.30277 -0.696362,-0.3179 -1.195926,-1.07482 l 0.862883,-0.59039 q 0.302766,0.48442 0.756915,0.77205 0.469287,0.28763 1.105096,0.28763 0.302766,0 0.605532,-0.0606 0.302766,-0.0757 0.529841,-0.21193 0.242212,-0.15138 0.378457,-0.37846 0.151383,-0.22707 0.151383,-0.52984 0,-0.52984 -0.393596,-0.75691 -0.393596,-0.24222 -0.953713,-0.37846 l -0.968851,-0.22708 q -0.181659,-0.0454 -0.499564,-0.15138 -0.302766,-0.10597 -0.605532,-0.3179 -0.287627,-0.21194 -0.499564,-0.54498 -0.211936,-0.34818 -0.211936,-0.84775 0,-0.54498 0.211936,-0.95371 0.227075,-0.40873 0.590394,-0.66609 0.378458,-0.25735 0.847745,-0.37845 0.469287,-0.13625 0.968851,-0.13625 0.741777,0 1.377585,0.28763 0.635809,0.28763 0.98399,0.98399 z m 8.379823,1.31703 q 0,-1.01426 -0.605532,-1.63493 -0.605532,-0.63581 -1.695489,-0.63581 -0.484426,0 -0.938575,0.1968 -0.454149,0.18166 -0.80233,0.49956 -0.333043,0.31791 -0.544979,0.72664 -0.196798,0.40873 -0.196798,0.84774 z m -4.813979,0.81747 q 0.04542,0.52984 0.257351,0.99913 0.211936,0.46929 0.560117,0.81747 0.348181,0.33304 0.80233,0.52984 0.454149,0.1968 0.983989,0.1968 0.80233,0 1.377586,-0.36332 0.590393,-0.37846 0.893159,-0.86288 l 0.772054,0.6358 q -0.635809,0.80233 -1.407862,1.15051 -0.756915,0.34819 -1.634937,0.34819 -0.787191,0 -1.468415,-0.27249 -0.666085,-0.28763 -1.150511,-0.7872 -0.484425,-0.49956 -0.772053,-1.18078 -0.272489,-0.68123 -0.272489,-1.48356 0,-0.80233 0.272489,-1.48355 0.27249,-0.68122 0.756915,-1.18079 0.484426,-0.49956 1.135373,-0.77205 0.650947,-0.28763 1.407862,-0.28763 0.802329,0 1.438138,0.28763 0.635809,0.28763 1.059681,0.77205 0.439011,0.46929 0.666085,1.12024 0.227075,0.63581 0.227075,1.36244 v 0.45415 z m 11.649681,-2.1345 q -0.22707,-0.43901 -0.60553,-0.69636 -0.37846,-0.25735 -0.92344,-0.25735 -0.25735,0 -0.52984,0.0605 -0.25735,0.0606 -0.46929,0.1968 -0.21193,0.12111 -0.34818,0.31791 -0.1211,0.19679 -0.1211,0.48442 0,0.49956 0.34818,0.72664 0.34818,0.22707 1.04454,0.3936 l 1.01427,0.24221 q 0.74177,0.16652 1.2262,0.68122 0.49956,0.49957 0.49956,1.25648 0,0.57526 -0.24221,0.99913 -0.22707,0.40873 -0.62067,0.68122 -0.37846,0.25735 -0.87802,0.37846 -0.49957,0.12111 -1.01427,0.12111 -0.81747,0 -1.52897,-0.30277 -0.696357,-0.3179 -1.195921,-1.07482 l 0.862881,-0.59039 q 0.30277,0.48442 0.75692,0.77205 0.46928,0.28763 1.10509,0.28763 0.30277,0 0.60553,-0.0606 0.30277,-0.0757 0.52985,-0.21193 0.24221,-0.15138 0.37845,-0.37846 0.15139,-0.22707 0.15139,-0.52984 0,-0.52984 -0.3936,-0.75691 -0.3936,-0.24222 -0.95371,-0.37846 l -0.96885,-0.22708 q -0.18166,-0.0454 -0.49957,-0.15138 -0.30276,-0.10597 -0.60553,-0.3179 -0.28763,-0.21194 -0.499564,-0.54498 -0.211936,-0.34818 -0.211936,-0.84775 0,-0.54498 0.211936,-0.95371 0.227074,-0.40873 0.590394,-0.66609 0.37846,-0.25735 0.84774,-0.37845 0.46929,-0.13625 0.96886,-0.13625 0.74177,0 1.37758,0.28763 0.63581,0.28763 0.98399,0.98399 z m 8.93994,1.86201 q 0,-0.59039 -0.1968,-1.10509 -0.18166,-0.5147 -0.52984,-0.89316 -0.34818,-0.37846 -0.84774,-0.5904 -0.48443,-0.22707 -1.1051,-0.22707 -0.62067,0 -1.12023,0.22707 -0.48443,0.21194 -0.83261,0.5904 -0.33304,0.37846 -0.52984,0.89316 -0.18166,0.5147 -0.18166,1.10509 0,0.5904 0.18166,1.1051 0.1968,0.5147 0.52984,0.89316 0.34818,0.37846 0.83261,0.60553 0.49956,0.21194 1.12023,0.21194 0.62067,0 1.1051,-0.21194 0.49956,-0.22707 0.84774,-0.60553 0.34818,-0.37846 0.52984,-0.89316 0.1968,-0.5147 0.1968,-1.1051 z m 1.08996,0 q 0,0.80233 -0.28763,1.48356 -0.27249,0.68122 -0.77205,1.18078 -0.49957,0.49957 -1.19593,0.7872 -0.68122,0.27249 -1.51383,0.27249 -0.81747,0 -1.51383,-0.27249 -0.68122,-0.28763 -1.18078,-0.7872 -0.49957,-0.49956 -0.7872,-1.18078 -0.27249,-0.68123 -0.27249,-1.48356 0,-0.80233 0.27249,-1.48355 0.28763,-0.68122 0.7872,-1.18079 0.49956,-0.49956 1.18078,-0.77205 0.69636,-0.28763 1.51383,-0.28763 0.83261,0 1.51383,0.28763 0.69636,0.27249 1.19593,0.77205 0.49956,0.49957 0.77205,1.18079 0.28763,0.68122 0.28763,1.48355 z m 2.09742,-1.33217 q 0,-0.46928 -0.0303,-0.95371 -0.0151,-0.48443 -0.0303,-1.25648 h 0.98399 v 1.31703 h 0.0303 q 0.10596,-0.28762 0.30276,-0.54498 0.1968,-0.27248 0.46929,-0.48442 0.28763,-0.21194 0.65095,-0.33304 0.37845,-0.13625 0.84774,-0.13625 0.42387,0 0.74178,0.0908 l -0.1968,0.98399 q -0.1968,-0.0757 -0.57526,-0.0757 -0.57525,0 -0.98399,0.22707 -0.40873,0.21194 -0.68122,0.56012 -0.27249,0.33304 -0.40873,0.72664 -0.12111,0.3936 -0.12111,0.75691 v 3.99652 h -0.99913 z"
         id="text4"
         style="font-size:15.1383px;line-height:0.78;font-family:Avenir;-inkscape-font-specification:'Avenir, Normal';text-align:center;letter-spacing:0.174855px;text-anchor:middle;fill:#6600ff;fill-opacity:1;stroke-width:0.192508;stroke-linecap:round;stroke-linejoin:round;paint-order:stroke markers fill"
         aria-label="Asesor" />
    </g>
  </g>
</svg>
